<?xml version="1.0" encoding="utf-8"?>
<!-- Generator: Adobe Illustrator 25.0.1, SVG Export Plug-In . SVG Version: 6.00 Build 0)  -->
<svg version="1.1" id="Layer_1" xmlns="http://www.w3.org/2000/svg" xmlns:xlink="http://www.w3.org/1999/xlink" x="0px" y="0px"
	 viewBox="0 0 1081.42 1167.22" style="enable-background:new 0 0 1081.42 1167.22;" xml:space="preserve">
<style type="text/css">
	.st0{fill:#E8E8E8;}
	.st1{fill:#02008D;}
	.st2{fill:#FDBE4A;}
	.st3{fill:#01008A;}
	.st4{fill:#1631A4;}
	.st5{fill:#505CD4;}
	.st6{fill:#8FBDC5;}
	.st7{fill:#6575FF;}
	.st8{fill:#6474FD;}
	.st9{fill:#BDCCD3;}
	.st10{fill:#FFFFFF;}
	.st11{fill:#505ED5;}
	.st12{fill:#CBCBCB;}
	.st13{fill:#6774FF;}
	.st14{fill:#525BD3;}
	.st15{fill:#8FBDC7;}
	.st16{fill:#FDBB45;}
	.st17{fill:#FB911E;}
	.st18{fill:#FDBB48;}
	.st19{fill:#FED648;}
</style>
<g>
	<circle class="st0" cx="242.75" cy="372.53" r="55.26"/>
	<circle class="st0" cx="227.96" cy="466.84" r="30.49"/>
	<circle class="st0" cx="838.32" cy="175.25" r="33.35"/>
	<circle class="st0" cx="895.24" cy="605.11" r="33.35"/>
	<path class="st0" d="M363.38,685.76c-50.65-9.76-139.95-111.67-94.29-194.68C327.68,384.54,327.8,351.84,285,276.1
		s-9.63-151.76,69.8-166.55c73.24-13.64,106.74,81.4,214.04,66.74c65.57-8.96,102.66-110,196.53-60.19
		c64.12,34.02-6.82,147.92,36.38,187.81s76.81,34.84,67.85,104.75c-8.95,69.92-97.62,42.94-78.29,108.4
		c19.33,65.45,119.66,102.61,30.63,204.07c-70.68,80.55-191.08-67.62-261.74-28.09C489.53,732.57,444.88,701.46,363.38,685.76z"/>
	<path class="st0" d="M210.06,956.4c0,0-90.06,4.52-135.86,29.63c-45.8,25.12,232.31,25.57,206.45,46.28
		c-25.86,20.71,94.52,47.37,193.97,22.51c99.45-24.86,142.78-52.28,196.16-49.85c53.38,2.43,89.39,36.11,248.39,8.12
		c84.24-14.83-5.08-46.49-49.57-44.93c-44.49,1.56-98.73-11.86-309.41-11.77C349.52,956.5,210.06,956.4,210.06,956.4z"/>
	<path class="st1" d="M772.18,952.8c0,0-15.34-28.64,0.92-28.64s8.45-9.94,3.48-17.75c-4.97-7.81-9.41-22.19,6.3-19.61
		c15.71,2.57,12.12-7.15,12.49-18.62c0.38-11.47,8.9-21.41,20.26-10.76s0.31-17.75,9.03-21.3c8.72-3.55,20.79,14.97,26.83,3.22
		s4.15-36.6,16.45-33.76c12.3,2.84,3.78,26.98,13.01,29.82c9.23,2.84,20.59,0,24.14,11.36s-11.36,25.95,0,26.11s28.4,7.8,21.3,13.92
		c-7.1,6.12-14.91,13.93-12.07,19.61c2.84,5.68-4.26,21.3-4.26,21.3L772.18,952.8z"/>
	<path class="st2" d="M303.91,986.03l4.73-10.78c-0.29-12.22-5.85-9.9-5.52-14.76s8.36-25.67,1.89-27.76
		c-6.48-2.09-12.7,15.58-15.54,12.74c-2.84-2.84,4.97-29.11,0-31.95c-4.97-2.84-10.65,17.75-17.04,17.75s9.94-41.89,4.97-45.44
		c-4.97-3.55-19.17,39.05-25.56,38.34c-6.39-0.71,14.2-65.33,6.39-66.04c-7.81-0.71-19.17,53.26-24.85,60.74
		c-5.68,7.48-2.13-61.45-8.52-64.29c-6.39-2.84-2.84,53.97-10.65,64.29s-9.23-22.39-14.91-51.15s-9.94-11.01-9.94-6.04
		s3.55,82.37-4.97,67.46c-8.52-14.91-14.2-12.78-9.94,8.52s0,19.88-14.18,7.1c-14.18-12.78-0.74,21.3-0.03,30.49
		c0.71,9.19-13.49-14.16-24.85-15.58s8.52,26.36,8.52,26.36H303.91z"/>
	<polygon class="st3" points="238.21,984.75 221.31,811.23 225.55,810.82 242.59,985.83 	"/>
	<circle class="st4" cx="223.43" cy="811.03" r="27.93"/>
	<path class="st3" d="M248.55,985.54l-1.19,0.49c-0.86-0.98-0.41,0.37,2.75-26.14c1.62-13.58,3.93-32.44,6.88-56.06
		c5.02-40.21,10.2-80.83,10.25-81.24l0.18-1.42l22.68-6.05l1.1,4.12l-19.92,5.31c-8.05,63.11-19.82,157.12-19.71,161.26
		c-0.02-0.78-0.78-1.91-2.1-1.91L248.55,985.54z"/>
	<circle class="st2" cx="290.65" cy="816.38" r="17.99"/>
	<polygon class="st3" points="231.01,984.82 176.88,859.14 140.15,846.9 141.5,842.85 180.04,855.7 235.8,985.19 	"/>
	<circle class="st2" cx="140.83" cy="844.87" r="25.8"/>
	<path class="st5" d="M215.86,986.03h47.81c0,0,5.23-90.1-29.82-105.42C233.85,880.61,206.86,890.08,215.86,986.03z"/>
	<path class="st6" d="M245.68,986.03c0,0-26.28-70.8-55.74-76.51c-29.47-5.71-53.61,0-53.61,0s69.59-7.9,92.78,76.51H245.68z"/>
	<path class="st7" d="M245.68,986.03c0,0,16.1-75.27,42.6-84.43c0,0-26.51,37.89-28.4,84.43H245.68z"/>
	<path class="st7" d="M229.11,986.03c0,0-7.36-33.23-38.11-37.25C191.01,948.78,190.3,972.63,229.11,986.03z"/>
	<path class="st5" d="M837.29,862.39H898c0,0,7.1-59.75-26.98-78.51C871.02,783.87,836.45,794.89,837.29,862.39z"/>
	<path class="st7" d="M740.37,839.34l105.09,18.08l-23.52,49C821.94,906.41,745.44,894.99,740.37,839.34z"/>
	<path class="st8" d="M917.18,802.96l95.15,39.55c0,0-55.05,43.46-107.22,0L917.18,802.96z"/>
	<path class="st6" d="M259.88,986.03c0,0,6.63-30.15,28.4-37.25C288.29,948.78,287.34,971.21,259.88,986.03z"/>
	<path class="st9" d="M766.92,968.17l9.66,29.85c0,0,60.36,30.53,120,0l17.75-53.26L766.92,968.17z"/>
	<polygon class="st4" points="855.42,953.07 842.85,862.86 845.46,857.42 859.64,952.54 	"/>
	<polygon class="st4" points="866.76,941.21 862.5,941.21 869.6,794.7 	"/>
	
		<rect x="822.85" y="866.05" transform="matrix(0.3529 -0.9357 0.9357 0.3529 -234.7469 1396.9248)" class="st4" width="139.42" height="4.26"/>
	<polygon class="st6" points="753.15,971.03 921.44,944.76 921.44,916.36 753.15,943.69 	"/>
	<rect x="332.32" y="382.14" class="st3" width="11.36" height="26.51"/>
	<polygon class="st3" points="343.68,286.16 343.68,376.46 332.32,376.46 332.32,331.96 336.33,328.41 332.32,325.93 332.32,286.16 
			"/>
	<path class="st10" d="M722.86,222.61v723.33c0,19.61-15.91,35.5-35.52,35.5H374.92c-19.61,0-35.5-15.89-35.5-35.5V222.61
		c0-19.61,15.89-35.5,35.5-35.5h312.42C706.95,187.11,722.86,203,722.86,222.61z"/>
	<path class="st11" d="M722.86,222.61c0-19.61-15.91-35.5-35.52-35.5H374.92c-19.61,0-35.5,15.89-35.5,35.5v29.82h125.92L489,276.1
		h81.42l23.67-23.67h128.76V222.61z"/>
	<path class="st12" d="M668.65,330.6H387.46c-1.18,0-2.13-0.95-2.13-2.13l0,0c0-1.18,0.95-2.13,2.13-2.13h281.19
		c1.18,0,2.13,0.95,2.13,2.13l0,0C670.78,329.65,669.83,330.6,668.65,330.6z"/>
	<path class="st12" d="M668.65,361.84H387.46c-1.18,0-2.13-0.95-2.13-2.13l0,0c0-1.18,0.95-2.13,2.13-2.13h281.19
		c1.18,0,2.13,0.95,2.13,2.13l0,0C670.78,360.89,669.83,361.84,668.65,361.84z"/>
	<path class="st12" d="M668.65,394.51H387.46c-1.18,0-2.13-0.95-2.13-2.13v0c0-1.18,0.95-2.13,2.13-2.13h281.19
		c1.18,0,2.13,0.95,2.13,2.13v0C670.78,393.55,669.83,394.51,668.65,394.51z"/>
	<path class="st12" d="M668.65,535.1H387.46c-1.18,0-2.13-0.95-2.13-2.13l0,0c0-1.18,0.95-2.13,2.13-2.13h281.19
		c1.18,0,2.13,0.95,2.13,2.13l0,0C670.78,534.15,669.83,535.1,668.65,535.1z"/>
	<path class="st12" d="M668.65,566.34H387.46c-1.18,0-2.13-0.95-2.13-2.13l0,0c0-1.18,0.95-2.13,2.13-2.13h281.19
		c1.18,0,2.13,0.95,2.13,2.13l0,0C670.78,565.39,669.83,566.34,668.65,566.34z"/>
	<path class="st12" d="M668.65,599.01H387.46c-1.18,0-2.13-0.95-2.13-2.13l0,0c0-1.18,0.95-2.13,2.13-2.13h281.19
		c1.18,0,2.13,0.95,2.13,2.13l0,0C670.78,598.05,669.83,599.01,668.65,599.01z"/>
	<path class="st12" d="M668.65,741.02H387.46c-1.18,0-2.13-0.95-2.13-2.13l0,0c0-1.18,0.95-2.13,2.13-2.13h281.19
		c1.18,0,2.13,0.95,2.13,2.13l0,0C670.78,740.07,669.83,741.02,668.65,741.02z"/>
	<path class="st12" d="M668.65,772.27H387.46c-1.18,0-2.13-0.95-2.13-2.13l0,0c0-1.18,0.95-2.13,2.13-2.13h281.19
		c1.18,0,2.13,0.95,2.13,2.13l0,0C670.78,771.31,669.83,772.27,668.65,772.27z"/>
	<path class="st12" d="M668.65,804.93H387.46c-1.18,0-2.13-0.95-2.13-2.13l0,0c0-1.18,0.95-2.13,2.13-2.13h281.19
		c1.18,0,2.13,0.95,2.13,2.13l0,0C670.78,803.98,669.83,804.93,668.65,804.93z"/>
	<path class="st11" d="M722.62,924.17v21.77c0,19.61-15.91,35.5-35.52,35.5H374.68c-19.61,0-35.5-15.89-35.5-35.5v-21.77H722.62z"/>
	<circle class="st4" cx="531.14" cy="866.32" r="26.98"/>
	<path class="st10" d="M542.97,865.58h-7.57c-1.18,0-2.13-0.95-2.13-2.13v-11.72c0-1.18-0.95-2.13-2.13-2.13l0,0
		c-1.18,0-2.13,0.95-2.13,2.13v11.72c0,1.18-0.95,2.13-2.13,2.13h-8.05c-1.18,0-2.13,0.95-2.13,2.13l0,0c0,1.18,0.95,2.13,2.13,2.13
		h8.05c1.18,0,2.13,0.95,2.13,2.13v11.72c0,1.18,0.95,2.13,2.13,2.13l0,0c1.18,0,2.13-0.95,2.13-2.13v-11.72
		c0-1.18,0.95-2.13,2.13-2.13h7.57c1.18,0,2.13-0.95,2.13-2.13l0,0C545.1,866.54,544.14,865.58,542.97,865.58z"/>
	<path class="st4" d="M799.07,211.25c-50.85,0-92.07,41.22-92.07,92.07c0,11.87,2.27,23.21,6.37,33.63l-29.91,33.29l41.58-12.2
		c16.77,22.65,43.69,37.35,74.04,37.35c50.85,0,92.07-41.22,92.07-92.07S849.92,211.25,799.07,211.25z"/>
	<path class="st13" d="M771.65,314.96v10.68c0,0,0,0-3.12,1.11c-3.12,1.12-10.17-8.75-11.59-11.06c-1.19-1.93-1.55-9.29,1.83-11.77
		l0.01-0.01c0.65-0.48,1.45-0.78,2.41-0.81c5.91-0.24,8.63,9.96,8.63,9.96L771.65,314.96z"/>
	<path class="st13" d="M781.55,341.55l1.6,19.53l-7.81,4.44c0,0,0.71,14.2,23.97,14.2c22.44,0,22.44-14.66,22.44-14.66l-8.79-3.43
		l1.08-19.37L781.55,341.55z"/>
	<path class="st13" d="M835.28,317.29c-2.84,3.07-7.36,11.18-10.95,11.29c-3.58,0.13-3.68-1.39-3.68-1.39s0.17-8.82,1.19-14.39
		c0.45-2.51,1.08-4.37,1.93-4.46c0,0,3.22-5.96,7.95-4.08c0.7,0.27,1.32,0.68,1.87,1.21C836.85,308.4,837.7,314.67,835.28,317.29z"
		/>
	<path class="st14" d="M781.94,346.34c0,0,4.05,13.13,14.16,13.13s17.68-12.78,17.68-12.78l-12.04-1.6L781.94,346.34z"/>
	<path class="st13" d="M768.3,300.96c0,0,4.5,37.87,6.86,40.47c2.37,2.6,14.44,10.41,21.3,10.18s20.12-5.21,21.07-7.57
		s8.05-46.86,8.05-46.86l-4.97-17.04c0,0-41.42-16.1-49.47-10.41C763.09,275.39,768.3,300.96,768.3,300.96z"/>
	<path class="st14" d="M769.93,313.74c0,0,2.03,6.86,11.03,6.86c8.99,0,11.28-14.67,11.28-14.67h8.72c0,0,2.13,15.27,12.31,15.27
		c6.39,0,8.47-5.65,8.47-5.65l-17.59-12.88h-15.38L769.93,313.74z"/>
	<path class="st14" d="M771.41,299.3l1.98-15.03c0,0,8.76,13.37,42.6,10.65l1.66,5.21l7.49-0.19l-8.43-24.77l-51.19-6.67
		L771.41,299.3z"/>
	<path class="st3" d="M841.91,282.8l-8.31,22.68c-0.55-0.53-1.18-0.94-1.87-1.21c-4.73-1.89-7.95,4.08-7.95,4.08
		c-0.85,0.09-1.48,1.95-1.93,4.46l-1.19-20.07c0,0-46.64,2.47-49-16.33c0,0,0.33,34.94-1.82,36.64c0,0-2.73-10.2-8.63-9.96
		c-0.97,0.03-1.76,0.33-2.41,0.81c0.38-0.26-7.53-28.74-7.53-28.74s1.31-11.36,10.21-11.72c0,0,1.45-25.04,17.78-26.09
		c15.91-1.05,3.02,11.55,2.33,12.23c1.14-0.36,30.22-9.53,43.1,1.97C837.82,263.26,841.91,282.8,841.91,282.8z"/>
	<path class="st15" d="M791.78,301.43c-0.06,0.7-0.13,1.53-0.24,2.47c-0.75,5.58-3.2,14.39-11.23,15.11
		c-13.66,1.24-13.66-19.71-13.66-19.71h25.21C791.85,299.3,791.86,300.12,791.78,301.43z"/>
	<path class="st10" d="M789.83,302.63c-0.05,0.59-0.11,1.3-0.2,2.09c-0.64,4.72-2.7,12.16-9.49,12.77
		c-11.54,1.04-11.54-16.66-11.54-16.66h21.3C789.89,300.83,789.91,301.53,789.83,302.63z"/>
	<path class="st15" d="M826.64,299.3c0,0,0,20.95-13.66,19.71c-8.04-0.72-10.48-9.53-11.23-15.11c-0.11-0.89-0.18-1.7-0.23-2.37
		c-0.1-1.36-0.09-2.23-0.09-2.23H826.64z"/>
	<path class="st10" d="M824.69,300.83c0,0,0,17.7-11.54,16.66c-6.79-0.61-8.86-8.05-9.49-12.77c-0.1-0.76-0.16-1.44-0.19-2
		c-0.08-1.15-0.07-1.88-0.07-1.88H824.69z"/>
	<path class="st15" d="M801.75,303.9h-10.21c0.11-0.94,0.18-1.78,0.24-2.47h9.66l0.09,0.1C801.56,302.2,801.63,303.01,801.75,303.9z
		"/>
	<polygon class="st15" points="766.64,299.3 764.16,303.9 765.4,304.87 766.87,302.67 	"/>
	<polygon class="st15" points="826.64,299.3 829.48,303.92 828.06,304.87 826.48,302.08 	"/>
	<path class="st14" d="M758.39,310.84c0,0,0.09-5.06,4.08-3.82c3.99,1.24,5.5,7.54,4.79,7.94c-0.71,0.4-2.03,2.62-0.39,3.42
		c0,0-2.21-0.09-1.35-2.84C766.37,312.79,763,305.78,758.39,310.84z"/>
	<path class="st14" d="M834.18,310.84c0,0-0.09-5.06-4.08-3.82c-3.99,1.24-5.5,7.54-4.79,7.94c0.71,0.4,2.03,2.62,0.39,3.42
		c0,0,2.21-0.09,1.35-2.84C826.19,312.79,829.56,305.78,834.18,310.84z"/>
	<path class="st14" d="M792.91,323.53h8.52c0,0-4.53,5.5-7.54,4.44C790.87,326.9,792.91,323.53,792.91,323.53z"/>
	<polygon class="st14" points="796.74,335.16 786.88,336.58 797.53,336.58 804.81,336.58 	"/>
	<path class="st14" d="M792.65,337.73h8.25c0,0-7.37,0.8-7.81,2.57L792.65,337.73z"/>
	<path class="st4" d="M799.07,417.9c-50.85,0-92.07,41.22-92.07,92.07c0,11.87,2.27,23.21,6.37,33.63l-29.91,33.29l41.58-12.2
		c16.77,22.65,43.69,37.35,74.04,37.35c50.85,0,92.07-41.22,92.07-92.07C891.14,459.12,849.92,417.9,799.07,417.9z"/>
	<path class="st13" d="M779.12,547l5.25,20.17l-11.47,3.79c0,0,0.71,14.2,23.97,14.2c22.44,0,22.44-14.66,22.44-14.66l-12.26-3.03
		l4.56-19.76L779.12,547z"/>
	<path class="st14" d="M779.49,548.45c0,0,8.9,14.28,18.79,14.29c6.69,0,13.08-14,13.08-14l-17,3.35L779.49,548.45z"/>
	<path class="st13" d="M767.99,504.75c0,0-0.47,30.3,1.42,33.61c1.89,3.31,17.99,18.93,26.51,18.46
		c8.52-0.47,23.91-14.91,25.56-17.99c1.66-3.08,1.42-38.34,1.42-38.34l-39.05-29.11C783.85,471.38,767.95,486.76,767.99,504.75z"/>
	<path class="st14" d="M769.41,538.36l1.25-37.64c0,0,7.17-3.09,7.1-10.41c0,0,11.25,17.29,35.5,14.44
		c6.04-0.71,9.3,27.81,9.3,27.81l9.17-14.56l-17.75-44.02l-44.57-4.97C769.41,469.01,762.61,531.1,769.41,538.36z"/>
	<path class="st16" d="M776.45,480.49c0,0-0.81,16.62-7.95,18.54c0,0-1.93,58.26,6.12,62.52c0,0-16.81,8.76-31.72-11.83
		c0,0,6.86-75.74,13.96-84.74c7.1-8.99,12.54-6.39,12.54-6.39s0-9.7,10.41-11.36c10.41-1.66,43.31-4.73,57.04,24.14
		c13.73,28.88,16.81,79.77,16.81,79.77s-19.88,20.36-30.77,13.02l-0.55-51.11c0,0-3.47-11.14-10.81-12.09
		C804.21,500.02,782.79,495.52,776.45,480.49z"/>
	<path class="st14" d="M789.89,529.72h9.59l-8.34,5.68C791.14,535.4,787.94,533.62,789.89,529.72z"/>
	<path class="st14" d="M786.34,539.84c0,0,4.7,1.78,8.79,1.78c4.09,0,8.79-1.78,8.79-1.78s-4.06,4.08-8.49,3.91
		C790.99,543.57,786.34,539.84,786.34,539.84z"/>
	<path class="st14" d="M792.74,545.07c0,0,2.59,1.15,5.55,0C798.29,545.07,795.63,548.09,792.74,545.07z"/>
	<path class="st4" d="M799.07,625.24c-50.85,0-92.07,41.22-92.07,92.07c0,11.87,2.27,23.21,6.37,33.63l-29.91,33.29l41.58-12.2
		c16.77,22.65,43.69,37.35,74.04,37.35c50.85,0,92.07-41.22,92.07-92.07C891.14,666.46,849.92,625.24,799.07,625.24z"/>
	<path class="st13" d="M778.39,764.79l1.6,19.53l-7.81,4.44c0,0,0.71,14.2,23.97,14.2c22.44,0,22.44-14.66,22.44-14.66l-8.79-3.43
		l1.08-19.37L778.39,764.79z"/>
	<path class="st14" d="M778.54,766.68c0,0,6.14,13.52,15.85,13.87c9.7,0.36,16.48-15.05,16.48-15.05l-17.16,3.51L778.54,766.68z"/>
	<path class="st13" d="M770.34,747.87c0,0,3.08,15.62,4.73,16.81c1.66,1.18,14.67,8.28,19.17,8.05s18.46-7.57,20.83-10.41
		c2.37-2.84,6.86-39.05,6.86-41.18c0-2.13-35.74-40.71-35.74-40.71s-16.57,20.83-17.04,21.54
		C768.68,702.66,763.71,724.67,770.34,747.87z"/>
	<path class="st13" d="M766.92,724.91c0,0-4.64-1.89-8.18,1.66c-3.55,3.55,1.83,17,10.5,17.02c8.67,0.02,0-10.63,0-10.63
		L766.92,724.91z"/>
	<path class="st13" d="M821.63,724.41c0,0,8.75-1.16,8.63,3.41c-0.08,2.95-1.69,14.57-5.95,15.77c-4.26,1.2-5.23,0-5.23,0v-14.66
		L821.63,724.41z"/>
	<path class="st14" d="M763.48,726.57c0,0,1.74,2.82,4.58,0c2.84-2.82,0.18-6.55,1.95-7.08c1.78-0.53,9.41-4.57,7.99-8.17
		c-1.42-3.59,1.42-6.04,2.49-5.15c1.07,0.89,1.78,0.48,2.66-0.18c0.89-0.66,3.2,6.1,7.16,5.69s4.73,4.97,7.04,4.44
		c2.31-0.53,5.25,5.72,9.23,4.79c3.98-0.93,3.73,5.82,6.57,5.66c2.84-0.16,5.51,2.31,7.9,2.67c2.39,0.36,3.61-0.31,3.61-0.31
		l-1.04-11.29l-15.44-20.17c0,0-34.55-11.54-36-11.72c-1.45-0.18-18.85,20.41-18.85,20.41L763.48,726.57z"/>
	<path class="st3" d="M782.18,701.24c0,0,2.6,8.52,8.05,8.76s4.5,3.55,8.28,3.79c3.79,0.24,5.68,5.68,9.23,4.97
		c3.55-0.71,3.62,5.39,8.76,5.52s3.39,0.25,5.13,0.13c1.74-0.12,0.56,4.29,3.04,4.53s-3.91,14.18-2.73,15.14s-2.86-0.48-2.86-0.48
		l-3.13,16.59c0,0,8.85,3.31,8.73-1.9s3.19-0.95,8.87-2.6c5.68-1.66-0.71-7.57,7.1-7.57c7.81,0-1.89-8.99,4.02-12.54
		s-0.47-6.94,3.55-11.28c4.02-4.34-1.89-6.94,3.79-10.49s-2.13-9.23,1.18-15.38c3.31-6.15,1.42-11.83-3.08-12.54
		s-1.89-5.92,2.6-12.07c4.5-6.15-6.15-10.41-11.83-8.52s1.42-11.12-5.92-13.25c-7.34-2.13-6.15,4.26-12.07,3.08
		c-5.92-1.18,5.94-8.76-4.37-13.02c-10.31-4.26-9.83,3.31-14.57,3.08c-4.73-0.24-6.15-8.76-11.83-6.63
		c-5.68,2.13-4.26,6.63-9.94,6.39s-6.63-7.81-13.02-4.97c-6.39,2.84-5.21,8.76-8.52,11.12c-3.31,2.37-4.73-2.6-8.28,2.37
		c-3.55,4.97,0.47,6.86-3.79,9.23c-4.26,2.37-6.63,1.18-7.81,6.15s3.55,6.15,0,8.52c-3.55,2.37-9.7,0.24-7.81,4.26
		s-0.71,6.86-3.31,10.18c-2.6,3.31-2.37,8.05,0,10.18c2.37,2.13,2.37,3.55,2.13,8.28s-4.5,5.44-1.18,10.18
		c3.31,4.73,6.15,4.26,5.68,9.47c-0.47,5.21-0.71,9.94,4.02,11.6s5.44-1.18,8.05,4.26c2.6,5.44,4.65,10.18,9.31,10.65
		s8.47-1.42,9.29,1.89s7.23,4.76,7.23,4.76l-4.92-19.45c0,0-7.66-4.95-6.71-6.61s2.37-2.37,0.71-4.97c-1.66-2.6-0.95-6.38,0.24-5.44
		c1.18,0.94,3.44,0,3.45-1.66s2-8.05,4.6-8.76c2.6-0.71,7.34-5.92,4.26-9.94C772.71,702.19,779.57,707.39,782.18,701.24z"/>
	<path class="st14" d="M791.97,749.13h6.51c0,0-2.72,4.38-5.09,4.73c-2.37,0.35-3.08-3.67-3.08-3.67L791.97,749.13z"/>
	<path class="st14" d="M787.3,761.68c0,0,6.68-0.95,13.07,0C800.37,761.68,794.23,763.57,787.3,761.68z"/>
	<path class="st14" d="M791.31,764.28h4.8C796.11,764.28,793.79,766.52,791.31,764.28z"/>
	<path class="st14" d="M762.85,729.25c0,0,2.37-0.36,2.96,3.96c0.59,4.32-0.83,3.67-0.83,3.67S766.11,732.09,762.85,729.25z"/>
	<path class="st14" d="M823.62,730.55c0,0-1.6,0.12-2.6,4.08c-1.01,3.96,0,3.25,0,3.25s-0.53-1.01,0.53-2.31
		C822.62,734.28,822.1,731.77,823.62,730.55z"/>
	<path class="st13" d="M377.28,500.49c0,0-7.46-0.13-7.68,2.6c-0.14,1.62-0.28,3.68-0.37,5.1c-0.07,0.98-0.11,1.65-0.11,1.65
		l-38.34-2.95l4.15-17.64l27.1-3.91l5.78,5.74L377.28,500.49z"/>
	<path class="st14" d="M377.28,500.49c0,0-7.46-0.13-7.68,2.6c-0.14,1.62-0.28,3.68-0.37,5.1l-3.32-2.43
		c2.23-4.36-5.34-12.77-5.34-12.77l7.23-1.92L377.28,500.49z"/>
	<path class="st13" d="M385.33,441.2c0,0,0.83,23.79-0.95,34.44c-1.78,10.65-4.85,24.73-7.1,24.85s-18.7-8.52-18.7-8.52L346.28,458
		l30.41-24.62C376.69,433.39,384.38,431.97,385.33,441.2z"/>
	<path class="st14" d="M365.21,468.06c0,0,1.3-9.35,6.27-10.18c4.97-0.83,13.9-6.33,13.36-9.94l0.02-11.84l-23.56,10.06
		L365.21,468.06z"/>
	<path class="st4" d="M365.21,468.06c0,0-1.42-8.64-7.46-7.34c-6.04,1.3-6.98,8.05-3.73,12.31s9.41,6.27,9.41,6.27l-4.85,12.66
		l-4.56,4.2c0,0-11.08,2.8-20.42-1.35c0,0-21.06-18.17-21.41-48.89l-4.79-2.66l15.44-8.88l-0.18-19.53l5.39,7.63
		c0,0,2.24-6.39,19.82-5.33c17.57,1.07,35.18,6.04,37.65,10.83c2.47,4.79,0,24.5,0,24.5l-1.79-12.07c0,0,0.53,10.83-9.59,14.02
		S365.21,468.06,365.21,468.06z"/>
	<path class="st3" d="M309.15,982.72l-3.3,38.01c0,0,14.35,14.6,33.32,0c2.31-1.78-1.24-2.84,4.08-5.5s8.52-6.39,8.52-8.52
		c0-2.13-6.75-0.89-12.6-10.47c-5.86-9.59-7.81-13.14-7.81-13.14L309.15,982.72z"/>
	<path class="st4" d="M305.85,968.24l1.37,13.2c0,0,11.36,9.12,24.14,1.66l4.26-11.36C335.62,971.74,308.38,967.58,305.85,968.24z"
		/>
	<path class="st3" d="M378.52,980.21l-5.8,47.02c0,0,14.91,11.46,29.82,0c14.91-11.46,14.73-12.34,14.2-14.48
		c-0.53-2.13,0.36-2.49-4.62-3.91s-13.95-16.34-10.79-26.54C401.34,982.3,382.13,978.97,378.52,980.21z"/>
	<path class="st4" d="M376,966.57v12.28c0,0,15.01,9.46,27.08,2.6l3.55-13.6L376,966.57z"/>
	<path class="st17" d="M327.81,516.41V505.4c0,0,5.15-4.26,22.9-3.2c17.75,1.07,22.37,3.91,22.37,3.91v12.6
		C373.08,518.71,334.2,524.39,327.81,516.41z"/>
	<path class="st13" d="M280.59,658.24c0,0-1.6,7.28-4.97,7.99s-13.67,1.78-12.43,3.73c1.24,1.95,17.4,3.37,17.4,3.37l-4.26,8.7
		c0,0-8.17,5.5-11.54,5.68c-3.37,0.18-7.46,2.84-6.57,4.08c0.89,1.24,22.9,1.95,26.1,0c3.2-1.95,10.65-8.88,10.65-8.88l1.24-31.07
		l-15.62-14.02l-5.15,4.97C275.45,642.8,281.08,656.5,280.59,658.24z"/>
	<path class="st18" d="M274.56,649.01c0,0-27.34-47.04-25.74-56.45s50.59-67.28,53.79-70.3s6.92-5.68,18.64-5.15
		c0,0-8.34,36.92-8.17,37.46c0.18,0.53-23.08,85.74-23.08,85.74L274.56,649.01z"/>
	<path class="st17" d="M277.16,657.71c0,0,19.06-6.39,19.06-6.92c0-0.53-6.21-10.47-6.21-10.47l-15.44,8.7
		C274.56,649.01,270.71,653.98,277.16,657.71z"/>
	<path class="st10" d="M396.93,616.23l-1.42,54.9l-49.62-2.06l-53.34-2.2c-17.28-5.44-10.65-38.81-10.65-38.81
		s25.08-92.78,27.92-101.78c2.84-8.99,11.43-9.16,11.43-9.16l6.56-0.71l45.27,2.3c2.76,0.28,4.96,1.01,6.72,1.96
		c5.71,3.07,6.82,8.45,6.82,8.45l4.49,37.96L396.93,616.23z"/>
	<path class="st0" d="M396.93,616.23l-1.42,54.9l-49.62-2.06l-3.15-1.48c0,0,29.45-30.31,17.82-36.7s-11.8-15.98-3.64-17.23
		s5.33-39.22,6.04-67.63s16.84-25.38,16.84-25.38l11.3,46.41L396.93,616.23z"/>
	<path class="st4" d="M293.9,683.9c0,0-3.01,34.7,8.7,51.74c0,0,11.01,96.22,9.23,108.29c-1.78,12.07-9.04,121.42-9.04,121.42
		s12.59,15.27,32.83,6.39c0,0,20.59-113.26,22.01-128.17c1.42-14.91,8.52-87.34,8.52-87.34l-21.3-74.91L293.9,683.9z"/>
	<path class="st3" d="M305.85,685.21c0,0,7.76,56.82,37.23,60.37c0,0,29.47,81.66,29.47,96.57c0,14.91,1.78,123.2,1.78,123.2
		s16.33,13.49,32.31,2.49c0,0,21.66-107.58,20.59-122.49c-1.07-14.91-30.3-156.45-30.3-156.45l-11.6-8.99L305.85,685.21z"/>
	<path class="st17" d="M292.55,666.88c0,0-3.21,14.86,1.35,17.02c4.56,2.15,103.03,4.99,103.03,4.99s3.79-15.62-1.42-17.75
		C395.51,671.14,301.3,663.8,292.55,666.88z"/>
	<path class="st13" d="M422.25,713.04c0,0,3.73,7.34,3.55,10.18c-0.18,2.84-0.36,9.94-0.71,10.47c-0.36,0.53-2.84,10.3-2.84,10.3
		s3.2,1.42,5.68-2.49c2.49-3.91,5.5-9.41,5.5-9.41l1.24-3.45h-2.84l2.84,4.16c0,0,2.84,8.31,2.84,11.44s-3.73,15.37-2.31,17.68
		c1.42,2.31,2.31,1.6,2.31,1.6l7.46-19.53l1.42-2.66l-2.66,2.13c0,0-5.15,18.67-4.08,20.16c1.07,1.49,2.13,1.85,2.13,1.85
		l5.68-13.85c0,0,8.7-24.68,6.92-27.87c-1.78-3.2-14.2-21.48-14.2-21.48S426.87,705.52,422.25,713.04z"/>
	<path class="st17" d="M420.48,718.24l24.68-12.96c0,0,0.56-12.25-5.5-12.25s-23.97,8.34-25.03,14.02
		C413.73,711.78,420.48,718.24,420.48,718.24z"/>
	<path class="st19" d="M414.62,707.06c0,0-2.66,0.53-4.97-3.02c-2.31-3.55-24.32-77.04-27.16-85.21
		c-2.84-8.17-13.14-81.3-13.14-81.3s-2.54-14.19,10.45-16.86c12.99-2.67,24.7,7.98,30.38,32.13s9.23,55.73,12.07,60.88
		c2.84,5.15,19.28,69.42,17.4,79.36L414.62,707.06z"/>
	<path class="st14" d="M354.8,465.58c0,0,5.68-4.1,7.81,1.32c2.13,5.42-0.83,5.66-0.83,5.66s2.07-3.13-1.22-5.66
		C357.27,464.37,354.8,465.58,354.8,465.58z"/>
</g>
</svg>
